<svg width="128" height="35" viewBox="0 0 128 35" fill="none" xmlns="http://www.w3.org/2000/svg">
<path d="M11.582 1.8C13.31 1.8 14.846 2.124 16.19 2.772C17.534 3.42 18.662 4.332 19.574 5.508C20.51 6.66 21.206 8.004 21.662 9.54C22.142 11.052 22.382 12.672 22.382 14.4C22.382 16.728 21.962 18.852 21.122 20.772C20.282 22.668 19.058 24.18 17.45 25.308C15.866 26.436 13.91 27 11.582 27H2.97803C2.35403 27 1.82603 26.796 1.39403 26.388C0.986031 25.956 0.782031 25.428 0.782031 24.804V3.996C0.782031 3.372 0.986031 2.856 1.39403 2.448C1.82603 2.016 2.35403 1.8 2.97803 1.8H11.582ZM11.222 22.86C12.734 22.86 13.97 22.476 14.93 21.708C15.89 20.916 16.586 19.884 17.018 18.612C17.474 17.316 17.702 15.912 17.702 14.4C17.702 13.272 17.57 12.204 17.306 11.196C17.066 10.164 16.682 9.264 16.154 8.496C15.626 7.704 14.954 7.08 14.138 6.624C13.322 6.168 12.35 5.94 11.222 5.94H4.92203L5.28203 5.616V23.256L5.06603 22.86H11.222ZM45.1217 17.388C45.1217 19.356 44.6777 21.096 43.7897 22.608C42.9257 24.096 41.7497 25.26 40.2617 26.1C38.7977 26.94 37.1537 27.36 35.3297 27.36C33.5057 27.36 31.8497 26.94 30.3617 26.1C28.8977 25.26 27.7217 24.096 26.8337 22.608C25.9697 21.096 25.5377 19.356 25.5377 17.388C25.5377 15.42 25.9697 13.692 26.8337 12.204C27.7217 10.692 28.8977 9.516 30.3617 8.676C31.8497 7.812 33.5057 7.38 35.3297 7.38C37.1537 7.38 38.7977 7.812 40.2617 8.676C41.7497 9.516 42.9257 10.692 43.7897 12.204C44.6777 13.692 45.1217 15.42 45.1217 17.388ZM40.8017 17.388C40.8017 16.164 40.5497 15.108 40.0457 14.22C39.5657 13.308 38.9057 12.6 38.0657 12.096C37.2497 11.592 36.3377 11.34 35.3297 11.34C34.3217 11.34 33.3977 11.592 32.5577 12.096C31.7417 12.6 31.0817 13.308 30.5777 14.22C30.0977 15.108 29.8577 16.164 29.8577 17.388C29.8577 18.588 30.0977 19.644 30.5777 20.556C31.0817 21.444 31.7417 22.14 32.5577 22.644C33.3977 23.148 34.3217 23.4 35.3297 23.4C36.3377 23.4 37.2497 23.148 38.0657 22.644C38.9057 22.14 39.5657 21.444 40.0457 20.556C40.5497 19.644 40.8017 18.588 40.8017 17.388ZM53.5825 24.804C53.5825 25.428 53.3665 25.956 52.9345 26.388C52.5265 26.796 52.0105 27 51.3865 27C50.7865 27 50.2825 26.796 49.8745 26.388C49.4665 25.956 49.2625 25.428 49.2625 24.804V2.556C49.2625 1.932 49.4665 1.416 49.8745 1.008C50.3065 0.575999 50.8345 0.36 51.4585 0.36C52.0825 0.36 52.5865 0.575999 52.9705 1.008C53.3785 1.416 53.5825 1.932 53.5825 2.556V24.804ZM68.5776 7.38C70.2576 7.38 71.7576 7.812 73.0776 8.676C74.4216 9.516 75.4776 10.68 76.2456 12.168C77.0376 13.656 77.4336 15.384 77.4336 17.352C77.4336 19.32 77.0376 21.06 76.2456 22.572C75.4776 24.06 74.4336 25.236 73.1136 26.1C71.8176 26.94 70.3536 27.36 68.7216 27.36C67.7616 27.36 66.8616 27.204 66.0216 26.892C65.1816 26.58 64.4376 26.184 63.7896 25.704C63.1656 25.224 62.6736 24.744 62.3136 24.264C61.9776 23.76 61.8096 23.34 61.8096 23.004L62.9256 22.536V32.004C62.9256 32.628 62.7216 33.144 62.3136 33.552C61.9056 33.984 61.3896 34.2 60.7656 34.2C60.1416 34.2 59.6256 33.996 59.2176 33.588C58.8096 33.18 58.6056 32.652 58.6056 32.004V9.936C58.6056 9.312 58.8096 8.796 59.2176 8.388C59.6256 7.956 60.1416 7.74 60.7656 7.74C61.3896 7.74 61.9056 7.956 62.3136 8.388C62.7216 8.796 62.9256 9.312 62.9256 9.936V11.7L62.3136 11.376C62.3136 11.064 62.4816 10.692 62.8176 10.26C63.1536 9.804 63.6096 9.36 64.1856 8.928C64.7616 8.472 65.4216 8.1 66.1656 7.812C66.9336 7.524 67.7376 7.38 68.5776 7.38ZM68.0376 11.34C66.9816 11.34 66.0576 11.604 65.2656 12.132C64.4736 12.66 63.8496 13.38 63.3936 14.292C62.9616 15.18 62.7456 16.2 62.7456 17.352C62.7456 18.48 62.9616 19.512 63.3936 20.448C63.8496 21.36 64.4736 22.08 65.2656 22.608C66.0576 23.136 66.9816 23.4 68.0376 23.4C69.0936 23.4 70.0056 23.136 70.7736 22.608C71.5656 22.08 72.1776 21.36 72.6096 20.448C73.0656 19.512 73.2936 18.48 73.2936 17.352C73.2936 16.2 73.0656 15.18 72.6096 14.292C72.1776 13.38 71.5656 12.66 70.7736 12.132C70.0056 11.604 69.0936 11.34 68.0376 11.34ZM91.3271 7.38C93.0551 7.38 94.3631 7.752 95.2511 8.496C96.1631 9.24 96.7871 10.236 97.1231 11.484C97.4591 12.708 97.6271 14.076 97.6271 15.588V24.804C97.6271 25.428 97.4231 25.956 97.0151 26.388C96.6071 26.796 96.0911 27 95.4671 27C94.8431 27 94.3271 26.796 93.9191 26.388C93.5111 25.956 93.3071 25.428 93.3071 24.804V15.588C93.3071 14.796 93.2111 14.088 93.0191 13.464C92.8271 12.816 92.4791 12.3 91.9751 11.916C91.4711 11.532 90.7511 11.34 89.8151 11.34C88.9031 11.34 88.1231 11.532 87.4751 11.916C86.8271 12.3 86.3351 12.816 85.9991 13.464C85.6871 14.088 85.5311 14.796 85.5311 15.588V24.804C85.5311 25.428 85.3271 25.956 84.9191 26.388C84.5111 26.796 83.9951 27 83.3711 27C82.7471 27 82.2311 26.796 81.8231 26.388C81.4151 25.956 81.2111 25.428 81.2111 24.804V2.556C81.2111 1.932 81.4151 1.416 81.8231 1.008C82.2311 0.575999 82.7471 0.36 83.3711 0.36C83.9951 0.36 84.5111 0.575999 84.9191 1.008C85.3271 1.416 85.5311 1.932 85.5311 2.556V11.484L84.9911 11.376C85.2071 10.968 85.5071 10.536 85.8911 10.08C86.2751 9.6 86.7431 9.156 87.2951 8.748C87.8471 8.34 88.4591 8.016 89.1311 7.776C89.8031 7.512 90.5351 7.38 91.3271 7.38ZM106.373 24.804C106.373 25.428 106.169 25.956 105.761 26.388C105.353 26.796 104.837 27 104.213 27C103.589 27 103.073 26.796 102.665 26.388C102.257 25.956 102.053 25.428 102.053 24.804V9.936C102.053 9.312 102.257 8.796 102.665 8.388C103.073 7.956 103.589 7.74 104.213 7.74C104.837 7.74 105.353 7.956 105.761 8.388C106.169 8.796 106.373 9.312 106.373 9.936V24.804ZM104.177 5.4C103.361 5.4 102.785 5.268 102.449 5.004C102.113 4.74 101.945 4.272 101.945 3.6V2.916C101.945 2.22 102.125 1.752 102.485 1.512C102.869 1.248 103.445 1.116 104.213 1.116C105.053 1.116 105.641 1.248 105.977 1.512C106.313 1.776 106.481 2.244 106.481 2.916V3.6C106.481 4.296 106.301 4.776 105.941 5.04C105.581 5.28 104.993 5.4 104.177 5.4ZM121.109 7.38C122.885 7.38 124.229 7.752 125.141 8.496C126.077 9.24 126.713 10.236 127.049 11.484C127.409 12.708 127.589 14.076 127.589 15.588V24.804C127.589 25.428 127.385 25.956 126.977 26.388C126.569 26.796 126.053 27 125.429 27C124.805 27 124.289 26.796 123.881 26.388C123.473 25.956 123.269 25.428 123.269 24.804V15.588C123.269 14.796 123.161 14.088 122.945 13.464C122.753 12.816 122.393 12.3 121.865 11.916C121.337 11.532 120.581 11.34 119.597 11.34C118.637 11.34 117.821 11.532 117.149 11.916C116.501 12.3 115.997 12.816 115.637 13.464C115.301 14.088 115.133 14.796 115.133 15.588V24.804C115.133 25.428 114.929 25.956 114.521 26.388C114.113 26.796 113.597 27 112.973 27C112.349 27 111.833 26.796 111.425 26.388C111.017 25.956 110.813 25.428 110.813 24.804V9.936C110.813 9.312 111.017 8.796 111.425 8.388C111.833 7.956 112.349 7.74 112.973 7.74C113.597 7.74 114.113 7.956 114.521 8.388C114.929 8.796 115.133 9.312 115.133 9.936V11.484L114.593 11.376C114.809 10.968 115.121 10.536 115.529 10.08C115.937 9.6 116.417 9.156 116.969 8.748C117.521 8.34 118.145 8.016 118.841 7.776C119.537 7.512 120.293 7.38 121.109 7.38Z" fill="#55CEC9"/>
</svg>
